<?xml version="1.0" encoding="UTF-8"?>
<!DOCTYPE svg PUBLIC "-//W3C//DTD SVG 1.1//EN" "http://www.w3.org/Graphics/SVG/1.1/DTD/svg11.dtd">
<svg xmlns="http://www.w3.org/2000/svg" version="1.1" style="shape-rendering:geometricPrecision; text-rendering:geometricPrecision; image-rendering:optimizeQuality; fill-rule:evenodd; clip-rule:evenodd"
    xmlns:xlink="http://www.w3.org/1999/xlink" viewBox="0 0 512 512">
    <g>
        <path style="opacity:0.951" fill="currentColor" d="M 511.5,216.5 C 511.5,219.833 511.5,223.167 511.5,226.5C 494.729,243.772 477.729,260.938 460.5,278C 455.833,280 451.167,280 446.5,278C 430,261.5 413.5,245 397,228.5C 392.775,220.511 394.608,214.344 402.5,210C 405.5,209.333 408.5,209.333 411.5,210C 420.97,218.469 430.137,227.303 439,236.5C 432.094,177.508 403.928,131.675 354.5,99C 301.755,67.4365 246.422,62.1032 188.5,83C 149.295,99.2038 118.295,125.204 95.5,161C 89.284,164.66 83.4507,164.16 78,159.5C 74.6667,154.167 74.6667,148.833 78,143.5C 120.255,80.7795 179.422,48.4461 255.5,46.5C 331.617,48.4638 390.784,80.7971 433,143.5C 451.04,172.619 461.707,204.286 465,238.5C 474.53,228.636 484.363,219.136 494.5,210C 501.985,207.788 507.652,209.954 511.5,216.5 Z"/>
    </g>
    <g>
        <path style="opacity:0.948" fill="currentColor" d="M -0.5,295.5 C -0.5,292.167 -0.5,288.833 -0.5,285.5C 15.9377,268.562 32.6044,251.728 49.5,235C 54.8333,231.667 60.1667,231.667 65.5,235C 82.3623,251.528 98.8623,268.362 115,285.5C 117.535,295.297 113.868,301.297 104,303.5C 101.48,302.793 98.9803,301.96 96.5,301C 87.9887,291.968 79.322,283.801 70.5,276.5C 81.7212,348.83 120.721,399.663 187.5,429C 253.402,452.403 314.402,443.403 370.5,402C 388.418,387.425 403.418,370.425 415.5,351C 426.189,346.345 432.856,349.678 435.5,361C 432.178,369.474 427.678,377.307 422,384.5C 364.763,452.804 292.263,477.971 204.5,460C 139.004,441.835 91.8377,402.002 63,340.5C 54.0447,319.012 48.378,296.679 46,273.5C 36.4705,283.364 26.6371,292.864 16.5,302C 9.01842,304.475 3.35175,302.308 -0.5,295.5 Z"/>
    </g>
</svg>
